<?xml version="1.0" encoding="UTF-8" standalone="no"?>
<!DOCTYPE svg PUBLIC "-//W3C//DTD SVG 1.1//EN" "http://www.w3.org/Graphics/SVG/1.1/DTD/svg11.dtd">
<svg width="100%" height="100%" viewBox="0 0 854 288" version="1.1" xmlns="http://www.w3.org/2000/svg" xmlns:xlink="http://www.w3.org/1999/xlink" xml:space="preserve" xmlns:serif="http://www.serif.com/" style="fill-rule:evenodd;clip-rule:evenodd;stroke-linejoin:round;stroke-miterlimit:2;">
    <g transform="matrix(1,0,0,1,-113.042,-385.898)">
        <g>
            <g>
                <g transform="matrix(1,0,0,0.991877,-266.146,117.593)">
                    <path d="M588.072,464.471C533.64,464.471 509.736,426.445 509.736,394.468C509.736,362.78 533.64,324.755 588.072,324.755C615.72,324.755 634.728,339.446 634.728,339.446L657.768,293.399C657.768,293.384 631.272,271.511 579.72,271.511C512.328,271.511 451.02,326.771 451.02,395.045C451.02,463.03 512.616,517.715 579.72,517.715C631.272,517.715 657.768,495.841 657.768,495.841L634.728,449.779C634.728,449.779 615.72,464.471 588.072,464.471Z" style="fill-rule:nonzero;"/>
                </g>
                <g transform="matrix(1,0,0,1,-265.146,114.387)">
                    <path d="M732.648,418.067L809.292,418.067L809.292,513.395L863.4,513.395L863.4,275.831L809.292,275.831L809.292,370.583L732.648,370.583L732.648,275.831L678.54,275.831L678.54,513.395L732.648,513.395L732.648,418.067Z" style="fill-rule:nonzero;"/>
                </g>
                <g transform="matrix(1,0,0,1,-272.97,114.387)">
                    <path d="M897.996,275.831L897.996,513.395L952.104,513.395L952.104,419.507L1024.7,513.395L1093.51,513.395L1011.75,415.187C1040.82,405.971 1060.39,382.067 1060.39,346.355C1060.39,299.715 1027.01,275.831 982.941,275.831L897.996,275.831ZM952.104,381.203L952.104,318.995L958.444,318.995C978.906,318.995 1003.4,320.435 1003.4,350.099C1003.4,379.763 978.906,381.203 958.444,381.203L952.104,381.203Z" style="fill-rule:nonzero;"/>
                </g>
                <g transform="matrix(1,0,0,1,-273.146,114.387)">
                    <path d="M1158.31,275.831L1104.2,275.831L1104.2,513.395L1240.1,513.395L1240.1,465.911L1158.31,465.911L1158.31,275.831Z" style="fill-rule:nonzero;"/>
                </g>
                <g transform="matrix(1,0,0,1,0,52)">
                    <path d="M167.15,575.782L167.15,412L113.042,412L113.042,575.782L167.15,575.782ZM113.042,338.218L113.042,384L167.15,384L167.15,338.218L113.042,338.218Z" style="fill-rule:nonzero;"/>
                    <g>
                        <clipPath id="_clip1">
                            <path d="M167.15,575.782L167.15,412L113.042,412L113.042,575.782L167.15,575.782ZM113.042,338.218L113.042,384L167.15,384L167.15,338.218L113.042,338.218Z"/>
                        </clipPath>
                        <g clip-path="url(#_clip1)">
                            <g transform="matrix(1.19661,0,0,1,-15.1386,0)">
                                <rect x="77" y="311" width="90.15" height="85" style="fill:rgb(201,49,0);"/>
                            </g>
                        </g>
                    </g>
                </g>
            </g>
        </g>
    </g>
</svg>
